<?xml version="1.0" encoding="UTF-8" standalone="no"?>
<!-- Created with Inkscape (http://www.inkscape.org/) -->

<svg
   xmlns:dc="http://purl.org/dc/elements/1.1/"
   xmlns:cc="http://creativecommons.org/ns#"
   xmlns:rdf="http://www.w3.org/1999/02/22-rdf-syntax-ns#"
   xmlns:svg="http://www.w3.org/2000/svg"
   xmlns="http://www.w3.org/2000/svg"
   xmlns:sodipodi="http://sodipodi.sourceforge.net/DTD/sodipodi-0.dtd"
   xmlns:inkscape="http://www.inkscape.org/namespaces/inkscape"
   version="1.1"
   id="svg2"
   width="190"
   height="266"
   viewBox="0 0 190 266"
   sodipodi:docname="naira.png.svg"
   inkscape:version="0.92.5 (2060ec1f9f, 2020-04-08)"
   inkscape:export-filename="/home/bami/Desktop/f.naira.png"
   inkscape:export-xdpi="96"
   inkscape:export-ydpi="96">
  <metadata
     id="metadata8">
    <rdf:RDF>
      <cc:Work
         rdf:about="">
        <dc:format>image/svg+xml</dc:format>
        <dc:type
           rdf:resource="http://purl.org/dc/dcmitype/StillImage" />
        <dc:title></dc:title>
      </cc:Work>
    </rdf:RDF>
  </metadata>
  <defs
     id="defs6" />
  <sodipodi:namedview
     pagecolor="#ffffff"
     bordercolor="#666666"
     borderopacity="1"
     objecttolerance="10"
     gridtolerance="10"
     guidetolerance="10"
     inkscape:pageopacity="0"
     inkscape:pageshadow="2"
     inkscape:window-width="1366"
     inkscape:window-height="704"
     id="namedview4"
     showgrid="false"
     inkscape:zoom="1.2475847"
     inkscape:cx="220.63882"
     inkscape:cy="201.34529"
     inkscape:window-x="0"
     inkscape:window-y="27"
     inkscape:window-maximized="1"
     inkscape:current-layer="svg2" />
  <path
     style="opacity:1;fill:#000000;fill-opacity:1;stroke:#000000;stroke-width:0.5;stroke-opacity:1"
     d="m 23.441095,216.60048 c 0,-43.9436 -0.0772,-48.72613 -0.7909,-49 -0.43499,-0.16692 -5.27249,-0.30349 -10.75,-0.30349 H 1.9410953 v -10.24006 -10.24005 l 10.6249997,-0.13495 10.625,-0.13494 v -15 -15 l -10.625,-0.13495 L 1.9410953,116.2771 V 105.78704 95.296998 h 10.7499997 10.75 v -48 -47.99999928 h 19.48241 c 22.21408,0 19.71962,-0.56723302 21.50384,4.88991048 0.51431,1.573049 1.64788,4.7725897 2.51906,7.1100888 0.87117,2.3375 1.76878,4.8125 1.99469,5.5 0.2259,0.6875 1.11942,3.1625 1.98559,5.5 0.86618,2.3375 2.21939,6.05 3.00716,8.25 0.78776,2.2 2.36622,6.5875 3.50768,9.75 1.14146,3.1625 2.26324,6.3125 2.49284,7 0.22961,0.6875 1.13263,3.1625 2.00673,5.5 0.87409,2.3375 1.77664,4.8125 2.00565,5.5 0.22901,0.6875 1.31705,3.725 2.41787,6.75 1.10081,3.025 2.59802,7.1875 3.32712,9.25 1.67972,4.751605 3.22679,8.963075 3.76529,10.25 0.23014,0.55 0.91579,2.45676 1.52366,4.23725 0.60788,1.780485 1.41426,3.97684 1.79195,4.880795 l 0.68672,1.643545 19.615875,-0.130795 19.61587,-0.130795 0.12751,-47.881829 0.12751,-47.88182818 16.37249,0.131829 16.37249,0.1318289 0.12751,47.86525528 0.12751,47.865254 10.87249,0.134745 10.87249,0.134745 0.13514,10.374992 0.13515,10.375 H 180.95124 169.9411 v 15.24025 15.24025 l 10.875,0.13475 10.875,0.13475 0.13532,10.11522 0.13532,10.11522 -10.88532,0.13478 -10.88532,0.13478 -0.12747,48.88073 -0.12746,48.88074 -19.80318,-0.13074 -19.80318,-0.13073 -17.45203,-48.47524 c -9.59862,-26.66138 -17.729835,-48.65322 -18.069365,-48.87076 -0.33953,-0.21754 -9.05482,-0.34118 -19.36732,-0.27476 l -18.75,0.12076 -0.12746,48.875 -0.12747,48.875 h -16.49754 -16.49753 z m 113.492345,-32.1376 c 0.004,-8.57126 -0.12891,-15.94001 -0.29584,-16.375 -0.25309,-0.65954 -1.28621,-0.79089 -6.22049,-0.79089 -3.61377,0 -6.04399,0.20548 -6.24325,0.52789 -0.17945,0.29035 0.14478,1.75285 0.72049,3.25 0.57571,1.49716 1.51868,4.01586 2.09549,5.59711 0.57681,1.58125 1.22988,3.325 1.45126,3.875 0.22138,0.55 0.85209,2.2375 1.40157,3.75 0.54949,1.5125 1.67753,4.55 2.50676,6.75 0.82923,2.2 2.02701,5.39418 2.66174,7.09819 0.70817,1.90117 1.30097,2.86707 1.53433,2.5 0.20916,-0.32901 0.38373,-7.61104 0.38794,-16.1823 z M 87.099345,146.42199 c 0.28176,-0.48633 -9.74763,-28.91438 -10.4481,-29.61485 -0.34967,-0.34967 -3.86593,-0.48566 -10.24626,-0.39626 l -9.71389,0.13611 -0.13287,14.49391 c -0.0731,7.97165 -0.0239,14.7779 0.10931,15.125 0.18753,0.48869 3.62357,0.63109 15.22836,0.63109 8.2424,0 15.08395,-0.16875 15.20345,-0.375 z m 49.597485,-0.75 c 0.15113,-0.61875 0.21166,-7.425 0.13452,-15.125 l -0.14025,-14 -15.875,-0.13203 c -8.91624,-0.0742 -15.875,0.061 -15.875,0.30833 0,0.24219 0.4295,1.5391 0.95445,2.88202 0.96459,2.46762 3.35453,8.73187 7.08357,18.56668 1.12092,2.95625 2.35478,6.10625 2.74191,7 l 0.70389,1.625 h 9.99856 c 9.95413,0 9.99979,-0.005 10.27335,-1.125 z M 68.446475,94.921998 c 0.0135,-0.940665 -11.23058,-31.125 -11.5945,-31.125 -0.22599,0 -0.41088,7.0875 -0.41088,15.75 v 15.75 h 6 c 3.3,0 6.00242,-0.16875 6.00538,-0.375 z"
     id="path6275"
     inkscape:connector-curvature="0" />
</svg>
