<svg xmlns="http://www.w3.org/2000/svg" version="1.1" xmlns:xlink="http://www.w3.org/1999/xlink" xmlns:svgjs="http://svgjs.dev/svgjs" width="100%" height="100%" viewBox="0 0 1000 600"><rect width="1000" height="600" x="0" y="0" fill="transparent"/><g><rect width="333.3333333333333" height="333.3333333333333" y="184.72301058762764" fill="transpare" transform="matrix(0.769227109546504,0,0,0.769227109546504,0,29.70153746913266)" x="162.50077819824216"/><path d="M267.999883326337 276.38968382577684L267.999883326337 276.38968382577684Q277.4036410225583 276.38968382577684 285.59957662935665 279.17917769896786Q293.76675456735916 281.9686715721589 299.71959200808635 287.2888402993788Q305.67242944881355 292.6377666953946 309.0945920355118 300.287306595073Q312.5167546222101 307.96560416354725 312.5167546222101 317.68569621652216L312.5167546222101 317.68569621652216Q312.5167546222101 325.9679048297078 310.0148374369769 333.0135336846747Q307.54167792053954 340.05916253964176 303.28554293876346 346.52963801869305Q299.0581656257833 353.00011349774434 293.5079355481971 359.0392239448589Q287.9577054706108 365.1070920607692 281.74604901072155 371.40502152704585L281.74604901072155 371.40502152704585L242.72189245484324 411.378181153185Q246.86299676143608 410.2278744013537 251.11913174321205 409.56644801905065Q255.34650905619225 408.9050216367476 259.28630968121456 408.9050216367476L259.28630968121456 408.9050216367476L308.9795613603287 408.9050216367476Q311.9991165838859 408.9050216367476 313.7533343804288 410.6592394332904Q315.50755217697156 412.4134572298333 315.50755217697156 415.20295110302425L315.50755217697156 415.20295110302425L315.50755217697156 426.38968426458405L216.5236561818844 426.38968426458405L216.5236561818844 420.0629971295117Q216.5236561818844 418.10747565139843 217.30011323937055 416.03692349810194Q218.07657029685672 413.96637134480557 219.8595457621953 412.2121535482628L219.8595457621953 412.2121535482628L267.3672146128298 364.474423347262Q273.26253671596544 358.46407056894327 278.1225827424529 352.9425981601528Q283.01138643773606 347.3923680825666 286.46230669323006 341.81338033618454Q289.9419846175199 336.2056349210068 291.8112330892459 330.4828588306458Q293.65172389217605 324.7313250714891 293.65172389217605 318.20333425484625L293.65172389217605 318.20333425484625Q293.65172389217605 311.6753434382033 291.58117173887956 306.7577820741243Q289.5106195855832 301.8402207100453 285.8871533173144 298.64811947371334Q282.26368704904576 295.42726056858555 277.4036410225583 293.8168311160217Q272.54359499607085 292.2064016634578 266.9646072496888 292.2064016634578L266.9646072496888 292.2064016634578Q261.35686183451105 292.2064016634578 256.6118464832067 293.87434645361327Q251.83807346310667 295.5422912437687 248.15709185724634 298.4755734609387Q244.47611025138605 301.43761334690436 241.9454353973571 305.46368697831406Q239.41476054332813 309.51851827851954 238.37948446667994 314.378564305007L238.37948446667994 314.378564305007Q237.5455120716022 317.36936185976845 235.90632495024255 318.72097229317035Q234.23838016008708 320.07258272657214 231.53515929328344 320.07258272657214L231.53515929328344 320.07258272657214Q231.01752125495932 320.07258272657214 230.47112554783945 320.0150673889806Q229.89597217192377 319.95755205138903 229.1770304520292 319.87127904500164L229.1770304520292 319.87127904500164L219.54321140544167 318.20333425484625Q220.98109484523084 308.0518771699346 225.1221991518237 300.22979125748145Q229.26330345841652 292.4364630138241 235.64750593108047 287.14505195539994Q242.00295073494866 281.8536408969757 250.22764401054278 279.12166236137625Q258.45233728613687 276.38968382577684 267.999883326337 276.38968382577684ZM419.3514941985461 278.0288709471365L419.3514941985461 372.87166263563086L441.8112335280531 372.87166263563086L441.8112335280531 383.42572708368334Q441.8112335280531 385.09367187383884 440.83347278899646 386.2152209568744Q439.8557120499398 387.3655277087057 437.78515989664334 387.3655277087057L437.78515989664334 387.3655277087057L419.3514941985461 387.3655277087057L419.3514941985461 426.38968426458405L403.10341132892836 426.38968426458405L403.10341132892836 387.3655277087057L337.36338046176706 387.3655277087057Q335.2928283084707 387.3655277087057 333.7686718622941 386.15770561928286Q332.2732730849134 384.97864119865574 331.8706657217724 383.22442340211285L331.8706657217724 383.22442340211285L330.00141725004653 373.79190803709594L402.15440825866756 278.0288709471365L419.3514941985461 278.0288709471365ZM403.10341132892836 372.87166263563086L403.10341132892836 311.6753434382033Q403.10341132892836 309.00088024019544 403.2471996729073 305.8950520102508Q403.39098801688624 302.7892237803062 403.90862605521033 299.4533341999953L403.90862605521033 299.4533341999953L349.98799706311604 372.87166263563086L403.10341132892836 372.87166263563086Z " fill="white" transform="matrix(0.769227109546504,0,0,0.769227109546504,0,29.70153746913266)"/><path d="M696.2351495301566 280.4187836665853L696.2351495301566 424.76685141321707L676.5932918914407 424.76685141321707L676.5932918914407 359.0981336381939L598.8092972537908 359.0981336381939L598.8092972537908 424.76685141321707L579.1674396150748 424.76685141321707L579.1674396150748 280.4187836665853L598.8092972537908 280.4187836665853L598.8092972537908 344.8004281490431L676.5932918914407 344.8004281490431L676.5932918914407 280.4187836665853L696.2351495301566 280.4187836665853ZM726.2295532177684 322.72432319612733L744.164639751126 322.72432319612733L744.164639751126 387.80546403324024Q744.164639751126 399.38912366632917 749.508791900691 405.7405505665977Q754.8529440502562 412.06399761268005 765.6251879119452 412.06399761268005L765.6251879119452 412.06399761268005Q773.4875269382687 412.06399761268005 780.4265307764476 408.34267700591477Q787.3935144688128 404.6213563991495 793.2133241395434 397.96215110283265L793.2133241395434 397.96215110283265L793.2133241395434 322.72432319612733L811.1484106729008 322.72432319612733L811.1484106729008 424.76685141321707L800.4880862279566 424.76685141321707Q796.6548462044466 424.76685141321707 795.6475714537431 421.0455308064519L795.6475714537431 421.0455308064519L794.2205988902467 410.04944811127325Q787.5893734481161 417.4081497622452 779.3353164631856 421.884926432038Q771.053279624069 426.38968295601705 760.3929551791248 426.38968295601705L760.3929551791248 426.38968295601705Q752.0269787774496 426.38968295601705 745.6195921688086 423.61967739158274Q739.2401854143538 420.8496718271484 734.903308015492 415.8132980736315Q730.5664306166302 410.77692432011463 728.4119818442924 403.61408164844613Q726.2295532177684 396.45123897677763 726.2295532177684 387.80546403324024L726.2295532177684 387.80546403324024L726.2295532177684 322.72432319612733ZM903.1181913829568 332.9929296824646L899.0890923801433 339.54021556203656Q897.8859586501364 341.77860389693296 895.3677717733779 341.77860389693296L895.3677717733779 341.77860389693296Q893.8568596473228 341.77860389693296 891.9262497084746 340.65940972948476Q890.0236196238127 339.54021556203656 887.2536140593785 338.19718256109877Q884.4836084949442 336.82616970597473 880.6503684714341 335.6789956843403Q876.817128447924 334.5038418085197 871.5848957151036 334.5038418085197L871.5848957151036 334.5038418085197Q867.0521593369384 334.5038418085197 863.442758146918 335.6789956843403Q859.8053771027113 336.82616970597473 857.2312305175805 338.8407192073814Q854.6570839324496 340.85526870878823 853.3140509315117 343.54133471066393Q851.9430380763877 346.1994208583534 851.9430380763877 349.3331645272083L851.9430380763877 349.3331645272083Q851.9430380763877 353.25034411327704 854.2094062654703 355.88045040678037Q856.475774454553 358.48257684609734 860.1970950613181 360.41318678494554Q863.9463955222698 362.3158168696075 868.6749908797383 363.77076928729014Q873.403586237207 365.2257217049728 878.3840002823515 366.90451295614514Q883.364414327496 368.55532435313114 888.1209895391509 370.56987385453795Q892.8495848966195 372.58442335594475 896.5709055033847 375.6062476080549Q900.2922261101501 378.62807186016505 902.5585942992327 383.02090896739924Q904.8249624883152 387.3857662204472 904.8249624883152 393.54133414141234L904.8249624883152 393.54133414141234Q904.8249624883152 400.592257396336 902.3067756115568 406.5799461921838Q899.7885887347984 412.5676349880317 894.8641343980262 416.9604720952659Q889.911700207068 421.3533092025001 882.7768373895856 423.8714960792586Q875.6139947179172 426.38968295601705 866.2407435655384 426.38968295601705L866.2407435655384 426.38968295601705Q855.5804191205943 426.38968295601705 846.9066643228708 422.89220118274136Q838.2608893793334 419.422699263652 832.2172408751131 413.99460755152813L832.2172408751131 413.99460755152813L836.4421988572301 407.13954327590795Q837.2536146286301 405.8244901291563 838.344828941892 405.12499377450115Q839.4640231093404 404.4254974198461 841.2827136314436 404.4254974198461L841.2827136314436 404.4254974198461Q843.0734242993607 404.4254974198461 845.0879738007675 405.8244901291563Q847.1025233021742 407.2514626926528 849.9844482833533 408.9582337980113Q852.8663732645325 410.6650049033698 856.9234521215321 412.06399761268005Q861.0085108327181 413.49097017617646 867.1640787536833 413.49097017617646L867.1640787536833 413.49097017617646Q872.3963114865037 413.49097017617646 876.3134910725723 412.1199573210524Q880.2586505128272 410.77692432011463 882.8607769521443 408.4545964226596Q885.4908832456475 406.1322685252046 886.7499766840267 403.11044427309446Q888.009070122406 400.0886200209843 888.009070122406 396.6750778102672L888.009070122406 396.6750778102672Q888.009070122406 392.42213997396414 885.7427019333234 389.6521344095298Q883.4763337442407 386.8821288450955 879.7550131374755 384.9235390520612Q876.0336925307103 382.96494925902675 871.2491374648691 381.5099968413441Q866.4645823990281 380.05504442366146 861.4561884996974 378.4322128808616Q856.475774454553 376.8093813380617 851.6912193887119 374.76685198246867Q846.9066643228708 372.6963427726895 843.1853437161055 369.5625991038346Q839.4640231093404 366.45683528916584 837.1976549202577 361.8681392026282Q834.9312867311751 357.27944311609053 834.9312867311751 350.73215723651856L834.9312867311751 350.73215723651856Q834.9312867311751 344.8843677116017 837.3375541911887 339.5122357078503Q839.7718015053886 334.1121238499128 844.3884774461123 330.0270651387268Q849.0331332410224 325.94200642754095 855.7762780998978 323.5357389675273Q862.5194229587732 321.1294715075137 871.1931777564968 321.1294715075137L871.1931777564968 321.1294715075137Q881.2659252635306 321.1294715075137 889.2681635607853 324.29119503055483Q897.2704018580399 327.45291855359596 903.1181913829568 332.9929296824646L903.1181913829568 332.9929296824646ZM959.0219400469944 426.38968295601705L959.0219400469944 426.38968295601705Q946.9346430385538 426.38968295601705 940.4433168673543 419.6185582429554Q933.9519906961547 412.87541338407993 933.9519906961547 400.20053943772905L933.9519906961547 400.20053943772905L933.9519906961547 337.74950489411947L921.6408548542245 337.74950489411947Q920.0460031656107 337.74950489411947 918.9268089981626 336.77020999760225Q917.8355946849006 335.8188949552713 917.8355946849006 333.8043454538646L917.8355946849006 333.8043454538646L917.8355946849006 326.6694826363822L934.5395676340651 324.54301371823067L938.6805860536233 293.00971805037756Q938.8764450329268 291.4988059243225 939.9956392003749 290.5474908819915Q941.086853513637 289.59617583966053 942.7936246189954 289.59617583966053L942.7936246189954 289.59617583966053L951.859097375326 289.59617583966053L951.859097375326 324.73887269753413L981.0700651457239 324.73887269753413L981.0700651457239 337.74950489411947L951.859097375326 337.74950489411947L951.859097375326 398.9694258535361Q951.859097375326 405.43277217054947 954.992841044181 408.53853598521823Q958.1265847130358 411.6722796540731 963.051039049808 411.6722796540731L963.051039049808 411.6722796540731Q965.8770043226147 411.6722796540731 967.9475135323939 410.9168235910456Q969.9900428879869 410.1613675280181 971.5009550140419 409.2660121940595Q973.0118671400969 408.34267700591477 974.0751015991727 407.58722094288726Q975.1383360582486 406.83176487985975 975.9497518296484 406.83176487985975L975.9497518296484 406.83176487985975Q977.3487445389587 406.83176487985975 978.4679387064068 408.53853598521823L978.4679387064068 408.53853598521823L983.7001714392272 417.1003713661969Q979.0555156443172 421.4372487650587 972.5082297647452 423.8994759334448Q965.9609438851733 426.38968295601705 959.0219400469944 426.38968295601705ZM1005.2446591626051 276.38968466377173L1023.1797456959625 276.38968466377173L1023.1797456959625 424.76685141321707L1005.2446591626051 424.76685141321707L1005.2446591626051 276.38968466377173ZM1095.1998903712542 321.1294715075137L1095.1998903712542 321.1294715075137Q1104.3772825443298 321.1294715075137 1112.1277021539086 324.17927561381Q1119.8781217634873 327.2570595742926 1125.5300523091005 333.04888939083696Q1131.154003000528 338.8407192073814 1134.343706377755 347.3465948799877Q1137.5054299007966 355.88045040678037 1137.5054299007966 366.7366338310279L1137.5054299007966 366.7366338310279Q1137.5054299007966 370.989571667331 1136.6100745668377 372.3885643766413Q1135.686739378693 373.78755708595156 1133.1685525019348 373.78755708595156L1133.1685525019348 373.78755708595156L1065.2894262462014 373.78755708595156Q1065.4852852255049 383.46858663437854 1067.9195325397045 390.6314293060469Q1070.3257999997181 397.7662921235293 1074.550757981835 402.5508471893703Q1078.7757159639518 407.3354022552113 1084.623505488869 409.7136898610388Q1090.4712950137855 412.06399761268005 1097.7180772480128 412.06399761268005L1097.7180772480128 412.06399761268005Q1104.4612221068883 412.06399761268005 1109.357696589474 410.5251056324387Q1114.2541710720602 408.9582337980113 1117.7796326995217 407.13954327590795Q1121.3050943269836 405.3208527538046 1123.6554020786248 403.7539809193771Q1126.0336896844524 402.21508893913585 1127.7404607898106 402.21508893913585L1127.7404607898106 402.21508893913585Q1129.9508692705213 402.21508893913585 1131.154003000528 403.92186004449434L1131.154003000528 403.92186004449434L1136.1903767540448 410.4691459240663Q1132.8887539600728 414.4982449268799 1128.2440981651625 417.4641094706176Q1123.5994423702527 420.42997401435537 1118.3112499290596 422.36058395320345Q1113.023057487867 424.2632140378654 1107.3991067964398 425.21452908019637Q1101.7471762508262 426.16584412252735 1096.2071651219576 426.16584412252735L1096.2071651219576 426.16584412252735Q1085.6307802395722 426.16584412252735 1076.7331866083591 422.6124026408793Q1067.8076131229595 419.0309813050451 1061.31628695176 412.1199573210524Q1054.8249607805606 405.236913191246 1051.187579736354 395.05224626746735Q1047.5501986921472 384.8675793436887 1047.5501986921472 371.68906802198615L1047.5501986921472 371.68906802198615Q1047.5501986921472 361.0007637228558 1050.8238416319332 351.739431987222Q1054.0974845717192 342.4781002515881 1060.2530524926842 335.6789956843403Q1066.4086204136493 328.8798911170925 1075.2502543364903 324.99069138520997Q1084.119868113517 321.1294715075137 1095.1998903712542 321.1294715075137ZM1095.6195881840476 334.30798282921626L1095.6195881840476 334.30798282921626Q1082.6089559874622 334.30798282921626 1075.1663147739318 341.8065837511192Q1067.695693706215 349.3331645272083 1065.9049830382978 362.6235952656557L1065.9049830382978 362.6235952656557L1121.3890338895426 362.6235952656557Q1121.3890338895426 356.38408778213204 1119.6822627841839 351.17983490349786Q1117.9754916788252 346.0035618790499 1114.6458890306667 342.22628156391227Q1111.3162863825087 338.4490012487746 1106.5317313166674 336.37849203899543Q1101.7471762508262 334.30798282921626 1095.6195881840476 334.30798282921626Z " fill="black" transform="matrix(0.769227109546504,0,0,0.769227109546504,0,29.70153746913266)"/></g></svg>